<svg width="37" height="20" viewBox="0 0 37 20" fill="none" xmlns="http://www.w3.org/2000/svg">
<path d="M36.9078 5.02008H29.9783V10.0273L36.9078 15.0113V5.02008Z" fill="#773DBD"/>
<path d="M33.4455 -1.21002e-05L31.572 1.87347L33.4455 3.74696L35.319 1.87348L33.4455 -1.21002e-05Z" fill="#00AE42"/>
<path d="M29.9783 20V10.0273L36.9078 15.0113L29.9783 20Z" fill="#00A7E1"/>
<path d="M29.9783 20V10.0273L23.0488 15.0113L29.9783 20Z" fill="#00AE42"/>
<path d="M5.33608 13.9228L3.36284 17.2393L1.33865 13.9228H0V19.6758H1.5054V16.7066L2.97375 19.106H3.70098L5.17859 16.6233L5.19712 19.6758H6.68863L6.67473 13.9228H5.33608Z" fill="#002D74"/>
<path d="M10.9177 15.6042C10.612 15.2939 10.1951 15.1456 9.6763 15.1456C8.46735 15.1456 7.48999 16.0257 7.48999 17.4385C7.48999 18.8512 8.46735 19.7499 9.6763 19.7499C10.8853 19.7499 10.6953 19.5877 10.9918 19.2311V19.6757H12.4787V15.2197H10.9177V15.6042ZM10.0052 18.5085C9.47712 18.5085 9.06951 18.124 9.06951 17.4385C9.06951 16.7529 9.48176 16.387 10.0052 16.387C10.5286 16.387 10.9408 16.7668 10.9408 17.4385C10.9408 18.1101 10.5286 18.5085 10.0052 18.5085Z" fill="#002D74"/>
<path d="M16.6289 15.6042C16.3231 15.2939 15.9063 15.1456 15.3875 15.1456C14.1785 15.1456 13.2012 16.0257 13.2012 17.4385C13.2012 18.8512 14.1785 19.7499 15.3875 19.7499C16.5964 19.7499 16.4065 19.5877 16.703 19.2311V19.6757H18.1899V15.2197H16.6289V15.6042ZM15.7164 18.5085C15.1883 18.5085 14.7807 18.124 14.7807 17.4385C14.7807 16.7529 15.1929 16.387 15.7164 16.387C16.2398 16.387 16.652 16.7668 16.652 17.4385C16.652 18.1101 16.2398 18.5085 15.7164 18.5085Z" fill="#002D74"/>
<path d="M20.7514 13.5754H19.1904V19.6758H20.7514V13.5754Z" fill="#002D74"/>
<path d="M4.40968 10.3376C4.40968 10.8147 4.31241 11.176 3.71488 11.176H2.47813C1.82501 11.176 1.55172 10.8564 1.55172 10.1106V8.74419H0V10.3422C0 11.9912 1.14874 12.4591 2.47813 12.4591H3.84457C5.11374 12.4591 5.93361 12.0283 5.93361 10.6665V4.95984H4.41431V10.333L4.40968 10.3376Z" fill="#002D74"/>
<path d="M18.5697 6.39577C17.333 6.39577 16.3742 7.27585 16.3742 8.57282C16.3742 9.86978 16.4344 9.2074 16.5409 9.47143H9.50952C8.85641 9.47143 8.51364 9.2074 8.51364 8.45702V4.96448H6.96191V8.65156C6.96191 10.3006 7.98559 10.7591 9.50952 10.7591H18.5697C19.8065 10.7591 20.7561 9.87905 20.7561 8.57282C20.7561 7.26659 19.8111 6.39577 18.5697 6.39577ZM18.5697 9.47143C18.0834 9.47143 17.7221 9.15182 17.7221 8.57282C17.7128 8.00771 18.0834 7.68347 18.5697 7.68347C19.0654 7.69273 19.4174 8.00308 19.4174 8.57282C19.4174 9.14256 19.0654 9.47143 18.5697 9.47143Z" fill="#002D74"/>
</svg>
