<?xml version="1.0" encoding="UTF-8"?>
<svg version="1.1" xmlns="http://www.w3.org/2000/svg" width="436" height="131">
<path d="M0 0 C0.74886475 0.00523682 1.49772949 0.01047363 2.26928711 0.01586914 C3.07817383 0.0190918 3.88706055 0.02231445 4.72045898 0.02563477 C5.5705957 0.03401367 6.42073242 0.04239258 7.29663086 0.05102539 C8.15063477 0.05553711 9.00463867 0.06004883 9.88452148 0.06469727 C12.00108749 0.07652166 14.11761771 0.0944577 16.23413086 0.11352539 C18.9783278 10.34709314 13.81420539 21.15155292 9.04663086 30.05102539 C2.24255731 41.54756345 -9.13531082 48.77512088 -21.70336914 52.86352539 C-37.15749376 56.74313226 -52.43290929 53.88231988 -66.13305664 45.93383789 C-78.58231492 37.32648721 -85.38607413 25.64133535 -88.76586914 11.11352539 C-89.27724658 7.75734237 -89.56324017 4.50756063 -89.76586914 1.11352539 C-83.16586914 1.11352539 -76.56586914 1.11352539 -69.76586914 1.11352539 C-69.53899414 2.74290039 -69.31211914 4.37227539 -69.07836914 6.05102539 C-68.02450531 11.85848778 -65.99411964 16.21651771 -62.76586914 21.11352539 C-62.20899414 22.00040039 -61.65211914 22.88727539 -61.07836914 23.80102539 C-54.07449398 30.80490055 -45.67177107 33.99877915 -35.95336914 34.48852539 C-26.25258246 34.23559077 -17.50458291 30.0285033 -10.76586914 23.11352539 C-5.92410035 16.31847579 -3.89069974 9.30871972 -2.76586914 1.11352539 C-1.76586914 0.11352539 -1.76586914 0.11352539 0 0 Z " fill="#6BBE4B" transform="translate(102.765869140625,52.886474609375)"/>
<path d="M0 0 C1.65 0 3.3 0 5 0 C5.0093457 0.63502441 5.01869141 1.27004883 5.02832031 1.92431641 C5.08228733 4.825308 5.16588127 7.72473244 5.25 10.625 C5.26417969 11.62402344 5.27835937 12.62304688 5.29296875 13.65234375 C5.49345962 19.70716793 5.98268294 23.37399854 10 28 C13.02864981 30.37965342 16.24751112 30.35961865 20.0390625 30.25390625 C23.88723508 29.75563689 26.17208999 27.88704644 28.75 25.125 C31.6329423 20.22399809 31.295696 14.22915023 31.5625 8.6875 C31.60568359 7.85154297 31.64886719 7.01558594 31.69335938 6.15429688 C31.79885307 4.10303065 31.89987315 2.0515352 32 0 C33.32 0 34.64 0 36 0 C36.01458252 0.60473145 36.02916504 1.20946289 36.04418945 1.83251953 C36.11909188 4.59729265 36.21561073 7.36091357 36.3125 10.125 C36.34633789 11.55199219 36.34633789 11.55199219 36.38085938 13.0078125 C36.5856817 18.37043329 36.98538513 22.37808433 40 27 C43.60323567 30.17932559 47.12677562 30.58087535 51.78125 30.41796875 C55.69034768 29.68157183 57.33178385 27.92852992 60 25 C62.64583147 20.20615901 62.44382373 15.02842536 62.625 9.6875 C62.66367187 8.75615234 62.70234375 7.82480469 62.7421875 6.86523438 C62.83606313 4.57701593 62.92174509 2.28879705 63 0 C64.32 0 65.64 0 67 0 C67.11668214 3.87474457 67.18741231 7.74903396 67.25 11.625 C67.28351563 12.71941406 67.31703125 13.81382813 67.3515625 14.94140625 C67.42869152 21.30455023 67.33609917 25.19620457 63 30 C58.13695057 34.48896871 53.84652927 36.49853487 47.125 36.3203125 C42.27380328 35.58906594 38.23910826 33.39399679 35 29.75 C34.505 28.88375 34.505 28.88375 34 28 C33.55269531 28.40992187 33.10539062 28.81984375 32.64453125 29.2421875 C27.36674754 33.94605443 23.49743965 36.5255654 16.12109375 36.31640625 C11.07012792 35.56294726 7.19158224 33.19158224 3.625 29.625 C-0.31036168 23.26787729 -0.25271114 17.37506326 -0.125 10.125 C-0.11597656 9.15046875 -0.10695313 8.1759375 -0.09765625 7.171875 C-0.07421623 4.78099272 -0.04140442 2.39062739 0 0 Z " fill="#6BBE4B" transform="translate(266,51)"/>
<path d="M0 0 C3.8265582 3.64557234 6.85910405 6.95695054 7.11352539 12.4519043 C7.10828857 13.39976807 7.10305176 14.34763184 7.09765625 15.32421875 C7.09443359 16.35224609 7.09121094 17.38027344 7.08789062 18.43945312 C7.07532227 20.04723633 7.07532227 20.04723633 7.0625 21.6875 C7.05798828 22.77095703 7.05347656 23.85441406 7.04882812 24.97070312 C7.03703743 27.64719085 7.02058063 30.32356777 7 33 C5.68 33 4.36 33 3 33 C2.505 30.525 2.505 30.525 2 28 C0.6078125 28.9590625 0.6078125 28.9590625 -0.8125 29.9375 C-5.48134603 32.95851802 -9.52003947 33.68499507 -15 33 C-20.29879641 31.38308786 -24.13163378 28.68352121 -27.08984375 23.98046875 C-29.49902164 18.73818038 -29.46322316 13.74991221 -27.9375 8.25 C-25.8688777 2.83757728 -22.66215124 0.47118885 -17.625 -2.3125 C-11.07427793 -4.0281653 -5.85961704 -3.36385423 0 0 Z M-22.875 8.25 C-24.36751074 11.89835958 -24.67896674 15.15252181 -24 19 C-21.77915243 23.35944153 -19.57923841 26.16830464 -15 28 C-10.99803619 28.74612885 -7.60911041 28.83041048 -3.93359375 26.93359375 C-0.03405516 23.94584706 2.13974441 20.88776587 2.9765625 16.015625 C3.03583653 10.91805868 0.64440042 7.72111476 -2.625 4.0625 C-10.24862948 -0.59638468 -17.23581045 1.48297254 -22.875 8.25 Z " fill="#6BBE4B" transform="translate(365,54)"/>
<path d="M0 0 C4.95170091 2.84264311 8.55208681 6.46876044 10.375 11.9375 C10.45709792 13.71063851 10.48246294 15.48670775 10.47265625 17.26171875 C10.46943359 18.28974609 10.46621094 19.31777344 10.46289062 20.37695312 C10.45032227 21.98473633 10.45032227 21.98473633 10.4375 23.625 C10.43298828 24.70845703 10.42847656 25.79191406 10.42382812 26.90820312 C10.41203743 29.58469085 10.39558063 32.26106777 10.375 34.9375 C9.055 34.9375 7.735 34.9375 6.375 34.9375 C5.88 32.4625 5.88 32.4625 5.375 29.9375 C3.9828125 30.8965625 3.9828125 30.8965625 2.5625 31.875 C-2.10634603 34.89601802 -6.14503947 35.62249507 -11.625 34.9375 C-16.9263725 33.31980177 -20.74452636 30.61822193 -23.71875 25.92578125 C-25.94379423 21.04411093 -25.88262825 16.45750667 -25 11.25 C-22.8208982 6.00034566 -20.27546913 2.87172781 -15.3125 0.0625 C-9.67565492 -1.65721545 -5.65147972 -1.65646819 0 0 Z M-19.5 10.1875 C-20.99251074 13.83585958 -21.30396674 17.09002181 -20.625 20.9375 C-18.40415243 25.29694153 -16.20423841 28.10580464 -11.625 29.9375 C-7.59435961 30.68897533 -4.19566649 30.82823714 -0.55859375 28.765625 C2.85131467 26.00352799 5.51210813 23.35982082 6.375 18.9375 C6.375 13.2101389 4.55666396 10.38472881 0.84765625 6.3203125 C-2.24774397 3.41375633 -5.24302241 3.60400993 -9.3046875 3.65625 C-13.92117461 4.21582419 -16.62089138 6.73256966 -19.5 10.1875 Z " fill="#6BBE4B" transform="translate(252.625,52.0625)"/>
<path d="M0 0 C1.32 0 2.64 0 4 0 C4.33 3.3 4.66 6.6 5 10 C6.155 9.34 7.31 8.68 8.5 8 C14.21885047 5.16579015 18.43211972 5.24734543 24.625 7.0625 C29.21547821 9.69777453 32.61978431 13.23956863 35 18 C35.08471364 19.81341842 35.10721083 21.62994161 35.09765625 23.4453125 C35.09443359 24.52167969 35.09121094 25.59804687 35.08789062 26.70703125 C35.07532227 28.39892578 35.07532227 28.39892578 35.0625 30.125 C35.05798828 31.26066406 35.05347656 32.39632812 35.04882812 33.56640625 C35.03701615 36.37765638 35.02054507 39.1888023 35 42 C33.68 42 32.36 42 31 42 C30.98541748 41.42556152 30.97083496 40.85112305 30.95581055 40.25927734 C30.88086275 37.63054304 30.78436006 35.00301448 30.6875 32.375 C30.66494141 31.47136719 30.64238281 30.56773438 30.61914062 29.63671875 C30.40579863 24.32256363 29.75449767 20.68190756 27 16 C27 15.34 27 14.68 27 14 C22.41392458 11.63299333 18.04569609 11.42203845 13 12 C9.62474673 13.32075128 8.3820761 14.41421257 6.41015625 17.4375 C4.49754055 22.26937123 4.43469651 26.72179875 4.3125 31.875 C4.27833984 32.84953125 4.24417969 33.8240625 4.20898438 34.828125 C4.12695707 37.21863491 4.05766152 39.60879905 4 42 C2.68 42 1.36 42 0 42 C0 28.14 0 14.28 0 0 Z " fill="#6BBE4B" transform="translate(189,45)"/>
<path d="M0 0 C3.73093191 2.56190658 6.03906751 6.08757275 7.7578125 10.20703125 C7.98486328 12.77246094 7.98486328 12.77246094 7.953125 15.62890625 C7.94667969 16.65371094 7.94023437 17.67851563 7.93359375 18.734375 C7.91683594 19.79785156 7.90007812 20.86132812 7.8828125 21.95703125 C7.87378906 23.03597656 7.86476563 24.11492187 7.85546875 25.2265625 C7.83192555 27.88694403 7.79904049 30.54687461 7.7578125 33.20703125 C6.4378125 33.20703125 5.1178125 33.20703125 3.7578125 33.20703125 C3.70882813 31.98886719 3.65984375 30.77070312 3.609375 29.515625 C3.53428977 27.89190688 3.45874448 26.26820999 3.3828125 24.64453125 C3.351875 23.84466797 3.3209375 23.04480469 3.2890625 22.22070312 C2.97364283 15.78088487 2.58012112 10.29601918 -1.8046875 5.26953125 C-5.09057039 2.84328032 -8.04312698 2.54424943 -12.05859375 2.78125 C-15.4922382 3.45077996 -17.64143073 4.92343994 -20.2421875 7.20703125 C-22.17240176 10.29637116 -22.53025396 12.79826969 -22.65625 16.41015625 C-22.71425781 17.8796875 -22.71425781 17.8796875 -22.7734375 19.37890625 C-22.81984375 20.90257812 -22.81984375 20.90257812 -22.8671875 22.45703125 C-22.90585937 23.48828125 -22.94453125 24.51953125 -22.984375 25.58203125 C-23.07850424 28.12352065 -23.16413729 30.66500558 -23.2421875 33.20703125 C-24.8921875 33.20703125 -26.5421875 33.20703125 -28.2421875 33.20703125 C-28.33030664 29.87386848 -28.38294947 26.54101078 -28.4296875 23.20703125 C-28.46739258 21.80517578 -28.46739258 21.80517578 -28.50585938 20.375 C-28.57240764 14.03073166 -28.32921948 7.69876388 -23.89575195 2.68408203 C-16.54470838 -3.81808684 -8.46452861 -4.69698353 0 0 Z " fill="#6BBE4B" transform="translate(403.2421875,53.79296875)"/>
<path d="M0 0 C2.87029869 1.79393668 4.49131638 2.98263276 6 6 C6.16796875 8.0234375 6.16796875 8.0234375 6.1875 10.375 C6.20167969 11.14585938 6.21585938 11.91671875 6.23046875 12.7109375 C5.97185059 15.2795857 5.38392982 16.8285815 4 19 C-0.06742429 21.58836091 -3.19689796 22.70045238 -8 22 C-11.31301121 20.27978264 -13.41950434 18.9086019 -15.4375 15.75 C-16.2117136 11.96495573 -16.2361513 8.64958956 -15 5 C-10.73865347 -0.11361584 -6.55255828 -1.33947324 0 0 Z " fill="#6BBE4B" transform="translate(58,37)"/>
<path d="M0 0 C3.0656253 2.00204101 4.47814172 3.40160389 5.62109375 6.90234375 C6.28564508 10.47173802 6.05892041 12.80482613 5 16.3125 C2.32384704 19.90858054 0.32684856 20.8650889 -4 22 C-8.30999579 21.80701511 -11.17727133 20.67875115 -14.5 17.9375 C-16.56770932 13.88823592 -16.82435167 10.46119726 -16 6 C-11.91929756 -0.5291239 -7.29598948 -0.98656462 0 0 Z " fill="#6BBE4B" transform="translate(71,13)"/>
<path d="M0 0 C2.87029869 1.79393668 4.49131638 2.98263276 6 6 C6.61935091 10.99904661 6.80268427 14.77088971 4 19.0625 C0.28583411 21.46123213 -2.58827027 22.31080679 -7 22 C-11.05763553 20.49717203 -12.58772494 19.61841259 -15 16 C-15.71207438 11.11483856 -15.72852643 7.1899265 -13.125 2.9375 C-9.14212168 -0.69394788 -5.20525336 -0.67425562 0 0 Z " fill="#6BBE4B" transform="translate(85,37)"/>
<path d="M0 0 C1.32 0 2.64 0 4 0 C4 3.96 4 7.92 4 12 C7.3 12 10.6 12 14 12 C14 13.65 14 15.3 14 17 C10.7 17 7.4 17 4 17 C4.4182655 22.60475769 4.72795223 26.30532277 8 31 C8 31.66 8 32.32 8 33 C12.58607542 35.36700667 16.95430391 35.57796155 22 35 C25.6677437 33.56479594 26.72870735 32.4553841 28.75 29.0625 C29.72193817 26.68125147 30.51619863 24.51576713 31 22 C32.32 22 33.64 22 35 22 C35.47441095 27.81153415 34.62403215 31.5199848 31 36 C25.3336866 40.48583144 21.15861045 41.48532952 14 41 C8.20722411 39.10236652 4.21611528 36.42761729 0.87548828 31.26074219 C-0.31611084 28.18371823 -0.22421679 25.5607143 -0.1953125 22.265625 C-0.18886719 20.97011719 -0.18242187 19.67460938 -0.17578125 18.33984375 C-0.15907193 16.97655981 -0.14214206 15.61327856 -0.125 14.25 C-0.1149634 12.87110015 -0.10583873 11.49219335 -0.09765625 10.11328125 C-0.07408093 6.74201118 -0.0411727 3.37109364 0 0 Z " fill="#6BBE4B" transform="translate(150,46)"/>
<path d="M0 0 C1.65 0 3.3 0 5 0 C5 11.88 5 23.76 5 36 C3.35 36 1.7 36 0 36 C0 24.12 0 12.24 0 0 Z " fill="#6BBE4B" transform="translate(414,51)"/>
<path d="M0 0 C11.18918919 -0.60810811 11.18918919 -0.60810811 14.75 2.0625 C16.29335884 5.68939327 16.49728837 8.0927342 16 12 C14.9375 14.375 14.9375 14.375 13 16 C6.81927711 17.40963855 6.81927711 17.40963855 4 16 C3.67 17.65 3.34 19.3 3 21 C2.01 21 1.02 21 0 21 C0 14.07 0 7.14 0 0 Z M3 5 C1.9074509 7.41921586 1.9094018 8.6036329 2.5 11.1875 C4.00295306 13.36812559 4.00295306 13.36812559 7.5 13.875 C9.2325 13.936875 9.2325 13.936875 11 14 C13.35639408 12.06110754 13.35639408 12.06110754 13.375 8.5625 C13.36814577 4.9821286 13.36814577 4.9821286 11.125 3.0625 C7.3953919 1.19769595 5.95730469 2.32888609 3 5 Z " fill="#040708" transform="translate(150,96)"/>
<path d="M0 0 C1.7109375 1.09765625 1.7109375 1.09765625 3 3 C3.29296875 6.13671875 3.29296875 6.13671875 3.1875 9.6875 C3.16042969 10.86699219 3.13335937 12.04648438 3.10546875 13.26171875 C3.07066406 14.16535156 3.03585938 15.06898437 3 16 C-6.03139932 17.58566553 -6.03139932 17.58566553 -9.6875 15.375 C-11 13 -11 13 -10.9375 10.375 C-10 8 -10 8 -7 6 C-4.67612053 5.60612212 -2.34206251 5.26513915 0 5 C0 4.34 0 3.68 0 3 C-4.455 3.495 -4.455 3.495 -9 4 C-9 3.01 -9 2.02 -9 1 C-5.95016004 -0.52491998 -3.3576631 -0.23562548 0 0 Z M-8 10 C-7.67 11.32 -7.34 12.64 -7 14 C-4.08347826 14.16681109 -4.08347826 14.16681109 -1 14 C-0.34 13.34 0.32 12.68 1 12 C1 11.01 1 10.02 1 9 C-3.74076549 7.81301999 -3.74076549 7.81301999 -8 10 Z " fill="#040708" transform="translate(179,96)"/>
<path d="M0 0 C1.828125 0.18359375 1.828125 0.18359375 4 1 C5.484375 3.28515625 5.484375 3.28515625 6.75 6.0625 C7.17796875 6.98160156 7.6059375 7.90070313 8.046875 8.84765625 C8.36140625 9.55792969 8.6759375 10.26820312 9 11 C9.25394531 10.28972656 9.50789062 9.57945313 9.76953125 8.84765625 C10.11371094 7.92855469 10.45789063 7.00945312 10.8125 6.0625 C11.14894531 5.14597656 11.48539063 4.22945313 11.83203125 3.28515625 C13 1 13 1 16 0 C15.42147788 4.71388398 14.08332269 8.46131028 12.0625 12.75 C11.53785156 13.87921875 11.01320312 15.0084375 10.47265625 16.171875 C9 19 9 19 7 21 C3.875 21.125 3.875 21.125 1 21 C1 20.01 1 19.02 1 18 C2.65 17.67 4.3 17.34 6 17 C5.40199745 13.17140894 4.25098656 10.22764136 2.4375 6.8125 C0 2.20679887 0 2.20679887 0 0 Z " fill="#040708" transform="translate(184,96)"/>
<path d="M0 0 C1.65 0 3.3 0 5 0 C5 1.32 5 2.64 5 4 C3.35 4 1.7 4 0 4 C0 2.68 0 1.36 0 0 Z " fill="#6BBE4B" transform="translate(414,45)"/>
</svg>
